<?xml version="1.0" encoding="utf-8"?>
<!-- Generator: Adobe Illustrator 27.6.1, SVG Export Plug-In . SVG Version: 6.00 Build 0)  -->
<svg version="1.1" id="Слой_1" xmlns="http://www.w3.org/2000/svg" xmlns:xlink="http://www.w3.org/1999/xlink" x="0px" y="0px"
	 viewBox="178 405 672 195" style="enable-background:new 0 0 1000 1000;" xml:space="preserve">
<style type="text/css">
	.st0{fill:#E9E9E9;}
	.st1{fill:#222426;}
	.st2{fill:#EAEAEA;}
	.st3{fill:#FFFFFF;}
</style>
<g>
	<path class="st3" d="M234.64,459.57v-16.4c-29.7,3.6-52.79,28.98-52.79,59.64c0,30.67,23.09,56.05,52.79,59.65v-16.4
		c-20.73-3.48-36.56-21.53-36.56-43.25C198.08,481.1,213.91,463.05,234.64,459.57z M249.23,443.17v16.4
		c20.73,3.48,36.55,21.53,36.55,43.24c0,21.72-15.82,39.77-36.55,43.25v16.4c29.7-3.6,52.79-28.98,52.79-59.65
		C302.02,472.15,278.93,446.77,249.23,443.17z"/>
	<path class="st3" d="M335.11,510.1h-16.4c3.6,29.71,28.98,52.8,59.64,52.8c30.67,0,56.05-23.09,59.65-52.8h-16.4
		c-3.48,20.73-21.53,36.56-43.25,36.56C356.64,546.66,338.59,530.83,335.11,510.1z M318.71,495.51h16.4
		c3.48-20.73,21.53-36.55,43.24-36.55c21.72,0,39.77,15.82,43.25,36.55H438c-3.6-29.7-28.98-52.79-59.65-52.79
		C347.69,442.72,322.32,465.81,318.71,495.51z"/>
	<path class="st3" d="M500.09,498.53c-0.93,0.15-1.89,0.22-2.85,0.22H475.8v-36.55h21.44c0.97,0,1.92,0.08,2.85,0.22h26.65
		c-6.08-9.9-16.99-16.47-29.5-16.47h-37.68v113.69h16.24V515h21.44c12.56,0,23.52-6.56,29.58-16.47H500.09z"/>
	<path class="st3" d="M571.05,462.65l-20.64-0.45l27.13,36.55h20.35L571.05,462.65z M631.89,445.96l-31.35,56.36l-8.77,15.59
		l-23.22,41.73h18.51l63.34-113.69H631.89z"/>
	<path class="st3" d="M750.95,472.02l-30.23,56.45l-44.17-82.5h-3.24l-19.65,113.69h16.4l12.5-68.05l36.55,68.05h3.24l33.24-61.91
		L750.95,472.02z"/>
	<g>
		<g>
			<path class="st3" d="M766.82,447.74c-4.56,0.82-7.46,5.1-6.66,9.58c0.81,4.49,5.1,7.47,9.58,6.66c4.49-0.81,7.46-5.1,6.66-9.58
				l-1.25-6.96l2.32-0.42l12.78,6.64l-2.75-15.24l7.35-1.32l4.88,27.07l-2.32,0.42l-13.9-7.16c-0.65,6.58-5.61,12.27-12.5,13.51
				c-8.35,1.51-16.29-4.01-17.8-12.36c-1.51-8.35,4.01-16.29,12.36-17.8l2.32-0.42l1.25,6.96L766.82,447.74z"/>
			<path class="st3" d="M816.68,491.77l1.48,8.2l-22.4-8.66c0.16,0.45,0.24,0.92,0.34,1.46c1.77,9.82-4.76,19.22-14.58,20.99
				s-19.22-4.76-20.99-14.58c-1.77-9.82,4.76-19.22,14.58-20.99c3.71-0.67,7.43,0.02,10.61,1.28L816.68,491.77z M767.48,497.92
				c1.07,5.95,6.82,9.95,12.78,8.88c5.96-1.07,9.95-6.82,8.88-12.78c-1.07-5.95-6.82-9.95-12.78-8.88
				C770.4,486.21,766.41,491.96,767.48,497.92z"/>
			<path class="st3" d="M789.31,557.06c-9.82,1.77-19.22-4.76-20.99-14.58c-1.77-9.82,4.76-19.22,14.58-20.99l10.05-1.81
				c9.82-1.77,19.22,4.76,20.99,14.58c1.77,9.82-4.76,19.22-14.58,20.99L789.31,557.06z M798.11,548.28
				c5.95-1.07,9.95-6.82,8.88-12.78c-1.07-5.95-6.82-9.95-12.78-8.88l-10.05,1.81c-5.95,1.07-9.95,6.82-8.88,12.78
				c1.07,5.95,6.82,9.95,12.78,8.88L798.11,548.28z"/>
		</g>
	</g>
	<g>
		<g>
			<path class="st3" d="M249.23,459.57v86.49c-2.37,0.4-4.82,0.61-7.3,0.61c-2.48,0-4.93-0.2-7.3-0.61v-86.49
				c2.37-0.4,4.82-0.61,7.3-0.61C244.42,458.96,246.86,459.16,249.23,459.57z"/>
		</g>
	</g>
</g>
</svg>
